<svg width="720" height="720" xmlns="http://www.w3.org/2000/svg" xmlns:xlink="http://www.w3.org/1999/xlink" xml:space="preserve" overflow="hidden"><g transform="translate(-280 0)"><path d="M581.357 133.321C582.129 133.314 582.902 133.308 583.697 133.301 584.525 133.305 585.353 133.309 586.205 133.314 587.491 133.311 587.491 133.311 588.803 133.308 590.615 133.306 592.427 133.31 594.239 133.319 597.006 133.33 599.772 133.319 602.539 133.305 604.302 133.307 606.064 133.31 607.826 133.314 608.651 133.309 609.476 133.305 610.326 133.301 614.622 133.338 618.015 133.412 621.719 135.703 623.708 138.373 624.091 140.286 624.086 143.583 624.09 144.463 624.094 145.343 624.098 146.25 624.092 147.221 624.085 148.192 624.079 149.163 624.079 150.19 624.081 151.218 624.083 152.245 624.087 155.042 624.077 157.839 624.065 160.636 624.054 163.597 624.055 166.558 624.055 169.52 624.052 174.524 624.042 179.528 624.026 184.532 624.006 190.846 623.998 197.16 623.995 203.473 623.982 228.006 623.899 252.528 623.241 277.054 621.417 333.714 621.417 333.714 636.484 387.422 640.036 387.046 642.773 385.858 645.845 384.126 646.37 383.832 646.895 383.537 647.436 383.234 665.939 372.57 683.523 359.849 699.951 346.242 701.708 344.792 703.485 343.368 705.258 341.939 708.554 339.242 711.704 336.407 714.839 333.526 717.759 330.85 720.743 328.246 723.763 325.682 726.382 323.439 728.561 321.228 730.703 318.516 731.73 317.671 732.758 316.827 733.793 315.991 735.46 314.527 736.837 312.855 738.272 311.166 739.907 309.303 741.601 307.51 743.309 305.715 747.688 301.101 751.748 296.365 755.615 291.317 757.291 289.131 759.059 287.035 760.85 284.941 766.707 277.938 771.89 270.433 777 262.872 777.443 262.217 777.443 262.217 777.895 261.548 779.368 259.367 780.835 257.183 782.296 254.994 789.385 244.41 789.385 244.41 792.842 242.227 796.583 241.514 799.412 241.986 802.54 244.042 803.259 244.67 803.966 245.31 804.663 245.962 805.24 246.475 805.24 246.475 805.828 246.998 807.048 248.091 808.251 249.199 809.453 250.312 810.26 251.051 811.068 251.79 811.875 252.529 813.433 253.958 814.981 255.395 816.525 256.838 818.203 258.401 819.921 259.905 821.67 261.387 822.525 262.142 823.375 262.904 824.219 263.672 824.692 264.101 825.165 264.53 825.652 264.971 827.977 267.3 829.488 269.208 829.799 272.549 829.375 277.733 826.305 281.945 823.516 286.172 823.007 286.947 823.007 286.947 822.488 287.737 813.389 301.496 803.293 314.426 792.578 326.953 791.939 327.701 791.939 327.701 791.287 328.464 784.657 336.13 777.637 343.395 770.432 350.517 768.075 352.849 765.738 355.2 763.407 357.556 761.566 359.412 759.721 361.264 757.87 363.109 757.446 363.53 757.024 363.952 756.589 364.385 754.853 366.071 753.072 367.691 751.222 369.25 749.941 370.333 748.682 371.433 747.427 372.547 741.391 377.882 735.144 382.846 728.704 387.683 727.192 388.825 725.692 389.978 724.194 391.138 703.998 406.761 682.416 420.087 659.688 431.719 658.912 441.667 670.812 454.338 676.92 461.611 678.649 463.624 680.412 465.605 682.188 467.578 682.709 468.165 682.709 468.165 683.242 468.764 697.011 485.141 697.011 485.141 714.992 494.605 718.76 494.55 720.699 492.58 723.32 490.078 723.779 489.659 724.239 489.241 724.711 488.809 726.02 487.606 727.31 486.386 728.594 485.156 729.174 484.608 729.754 484.059 730.352 483.495 744.612 469.596 755.232 452.567 763.511 434.583 764.059 433.394 764.607 432.205 765.156 431.016 765.409 430.465 765.662 429.915 765.922 429.348 767.096 426.878 767.758 425.531 770.078 423.984 772.021 423.797 772.021 423.797 774.404 423.78 775.295 423.771 776.187 423.762 777.106 423.753 778.08 423.751 779.054 423.75 780.029 423.748 781.028 423.744 782.027 423.739 783.026 423.734 785.121 423.726 787.215 423.723 789.309 423.724 791.991 423.724 794.673 423.705 797.354 423.681 799.418 423.665 801.482 423.662 803.545 423.663 804.534 423.661 805.523 423.655 806.511 423.644 807.894 423.631 809.278 423.636 810.661 423.643 811.448 423.641 812.235 423.639 813.045 423.637 815.548 424.065 816.38 424.787 817.891 426.797 818.382 430.708 817.406 433.924 816.133 437.564 815.851 438.385 815.851 438.385 815.564 439.224 812.036 449.259 807.35 458.868 802.422 468.281 802.189 468.728 801.957 469.176 801.717 469.636 795.914 480.693 788.686 491.096 780.625 500.625 780.041 501.337 779.458 502.05 778.856 502.784 770.768 512.549 761.827 521.683 751.797 529.453 750.535 530.506 749.276 531.561 748.018 532.617 714.682 559.844 671.106 573.891 628.354 573.926 627.818 573.926 627.281 573.927 626.728 573.927 572.367 573.852 522.927 551.424 484.697 513.457 480.049 508.749 475.834 503.763 471.645 498.648 471.091 497.973 471.091 497.973 470.525 497.284 469.972 496.604 469.972 496.604 469.407 495.909 469.039 495.465 468.671 495.022 468.292 494.564 467.031 492.891 467.031 492.891 465.951 490.932 464.093 487.768 462.707 485.542 459.085 484.469 456.209 484.239 453.425 484.249 450.546 484.346 449.492 484.352 448.438 484.354 447.385 484.353 444.623 484.356 441.863 484.404 439.102 484.463 434.679 484.552 430.256 484.578 425.832 484.597 424.293 484.61 422.755 484.644 421.217 484.681 420.268 484.692 419.321 484.703 418.372 484.715 417.137 484.74 417.137 484.74 415.878 484.766 413.069 484.381 411.579 483.389 409.375 481.641 406.618 477.87 406.948 473.773 406.96 469.29 406.957 468.508 406.953 467.726 406.949 466.921 406.945 465.273 406.946 463.624 406.952 461.976 406.958 459.454 406.937 456.934 406.915 454.413 406.914 452.809 406.915 451.205 406.917 449.602 406.905 448.472 406.905 448.472 406.893 447.32 406.941 442.117 406.941 442.117 408.561 439.346 411.207 437.079 413.625 437.235 416.988 437.171 417.952 437.148 418.916 437.124 419.88 437.1 421.392 437.067 422.905 437.036 424.416 437.008 425.881 436.98 427.345 436.944 428.809 436.907 429.683 436.89 430.557 436.872 431.458 436.854 434.151 436.627 436.343 436.058 438.906 435.234 438.531 431.834 438.002 428.558 437.248 425.223 427.044 379.313 435.239 327.397 460.502 287.572 465.108 280.439 469.966 273.664 475.469 267.188 476.282 266.18 476.282 266.18 477.111 265.153 485.337 255.021 494.662 245.526 505.217 237.826 506.446 236.924 507.654 235.998 508.862 235.067 526.23 221.804 546.548 211.639 567.831 206.502 569.622 206.2 569.622 206.2 570.39 205.312 570.464 203.302 570.491 201.308 570.49 199.297 570.493 198.666 570.495 198.035 570.498 197.385 570.503 196.009 570.507 194.633 570.509 193.257 570.514 191.079 570.525 188.901 570.538 186.723 570.575 180.529 570.609 174.334 570.62 168.14 570.627 164.355 570.647 160.57 570.677 156.785 570.685 155.342 570.689 153.9 570.688 152.457 570.686 150.435 570.701 148.414 570.721 146.392 570.716 145.797 570.712 145.202 570.707 144.589 570.766 140.843 571.354 138.628 573.906 135.703 576.411 133.772 578.224 133.329 581.357 133.321ZM564.018 256.158C563.281 256.438 563.281 256.438 562.528 256.725 553.46 260.324 544.996 265.376 537.344 271.406 536.772 271.844 536.2 272.282 535.611 272.733 530.792 276.486 526.315 280.579 521.875 284.766 521.359 285.251 520.843 285.737 520.312 286.238 510.378 295.875 502.361 307.756 495.859 319.922 495.502 320.563 495.145 321.204 494.777 321.864 477.876 353.542 476.404 392.678 485.886 426.75 486.977 430.436 486.977 430.436 489.531 433.125 516.901 437.298 550.876 423.635 576.675 414.932 577.401 414.69 577.401 414.69 578.142 414.444 579.509 413.988 580.87 413.52 582.231 413.047 583.388 412.651 583.388 412.651 584.568 412.246 586.663 411.282 587.867 410.24 589.375 408.516 589.209 408.051 589.043 407.587 588.872 407.108 571.461 357.874 571.603 306.761 571.094 255.234 568.318 254.309 566.632 255.156 564.018 256.158ZM602.751 457.155C601.775 457.506 600.798 457.856 599.822 458.206 599.053 458.489 599.053 458.489 598.269 458.776 572.451 468.209 545.569 474.963 518.359 478.828 518.073 481.617 518.073 481.617 519.631 483.286 537.708 501.148 560.797 514.023 585.156 521.016 586.003 521.265 586.003 521.265 586.868 521.52 598.515 524.917 610.291 526.904 622.422 527.344 623.12 527.373 623.818 527.402 624.537 527.432 634.923 527.649 645.455 526.543 655.645 524.576 656.234 524.464 656.824 524.353 657.433 524.239 658.25 524.07 658.25 524.07 659.083 523.897 659.558 523.799 660.033 523.702 660.523 523.6 662.053 523.029 662.837 522.231 663.906 521.016 662.975 518.922 662.001 517.566 660.297 516.042 659.852 515.637 659.406 515.231 658.948 514.814 658.467 514.381 657.986 513.947 657.49 513.501 648.611 505.328 640.402 496.66 633.142 487.013 632.277 485.876 631.394 484.755 630.502 483.638 627.191 479.466 624.159 475.18 621.279 470.699 620.792 469.941 620.792 469.941 620.295 469.169 618.808 466.845 617.342 464.512 615.91 462.154 615.196 461.01 615.196 461.01 614.468 459.844 613.863 458.843 613.863 458.843 613.245 457.822 610.189 454.491 606.563 455.75 602.751 457.155Z" fill="#FFFFFF"/><path d="M464.219 485.156C465.186 486.694 465.186 486.694 465.625 487.969 464.929 487.969 464.233 487.969 463.516 487.969 463.22 487.513 462.923 487.056 462.618 486.586 461.488 484.943 461.488 484.943 459.337 484.791 458.493 484.785 457.648 484.779 456.778 484.772 456.311 484.765 455.844 484.758 455.364 484.75 453.823 484.73 452.282 484.729 450.741 484.728 449.672 484.717 448.603 484.706 447.534 484.693 444.722 484.662 441.91 484.648 439.097 484.637 436.227 484.623 433.357 484.594 430.487 484.566 424.856 484.513 419.225 484.477 413.594 484.453 413.594 484.221 413.594 483.989 413.594 483.75 419.571 483.609 425.549 483.48 431.527 483.366 434.303 483.312 437.079 483.255 439.855 483.188 442.535 483.124 445.216 483.07 447.897 483.024 448.918 483.005 449.939 482.981 450.96 482.954 452.394 482.916 453.827 482.893 455.261 482.872 456.076 482.855 456.891 482.838 457.731 482.82 460.331 483.08 461.996 483.804 464.219 485.156Z" fill="#FFFFFF"/><path d="M481.797 509.766C485.472 510.804 487.54 513.156 490.103 515.83 490.733 516.474 490.733 516.474 491.376 517.132 492.406 518.187 493.43 519.249 494.453 520.312 493.989 520.777 493.525 521.241 493.047 521.719 491.169 519.861 489.295 518 487.422 516.138 486.885 515.607 486.349 515.076 485.796 514.53 485.288 514.024 484.781 513.519 484.258 512.998 483.786 512.531 483.315 512.063 482.83 511.581 481.797 510.469 481.797 510.469 481.797 509.766Z" fill="#FFFFFF"/><path d="M647.734 502.734C651.454 505.834 654.898 509.116 658.281 512.578 658.049 513.274 657.817 513.97 657.578 514.688 654.098 511.207 650.617 507.727 647.031 504.141 647.263 503.677 647.495 503.212 647.734 502.734Z" fill="#FFFFFF"/><path d="M523.984 477.422C523.752 477.886 523.52 478.35 523.281 478.828 521.649 479.115 520.007 479.352 518.359 479.531 519.532 482.303 521.332 484.305 523.281 486.562 520.867 486.562 520.596 486.32 518.931 484.717 517.234 482.957 516.972 482.518 516.689 479.971 516.776 479.362 516.863 478.753 516.953 478.125 519.213 476.995 521.479 477.381 523.984 477.422Z" fill="#FFFFFF"/><path d="M481.797 259.453C482.725 259.685 483.653 259.917 484.609 260.156 483.738 261.203 482.857 262.241 481.973 263.276 481.238 264.145 481.238 264.145 480.49 265.031 478.975 266.494 478.223 266.933 476.172 267.188 477.779 264.312 479.657 261.94 481.797 259.453Z" fill="#FFFFFF"/><path d="M728.594 321.328C729.058 321.56 729.522 321.792 730 322.031 728.864 323.466 727.69 324.872 726.484 326.25 726.02 326.25 725.556 326.25 725.078 326.25 725.078 326.714 725.078 327.178 725.078 327.656 724.15 327.424 723.222 327.192 722.266 326.953 724.354 325.097 726.442 323.241 728.594 321.328Z" fill="#FFFFFF"/><path d="M636.484 490.078C636.716 490.542 636.948 491.006 637.188 491.484 637.884 491.716 638.58 491.948 639.297 492.188 640.426 493.487 640.426 493.487 641.538 495.044 641.911 495.56 642.283 496.075 642.667 496.607 642.947 497.005 643.227 497.403 643.516 497.812 641.406 497.812 641.406 497.812 639.97 496.428 639.472 495.841 638.975 495.254 638.462 494.648 637.959 494.061 637.456 493.474 636.938 492.869 636.556 492.412 636.174 491.955 635.781 491.484 636.013 491.02 636.245 490.556 636.484 490.078Z" fill="#FFFFFF"/><path d="M496.562 244.688C497.027 244.92 497.491 245.152 497.969 245.391 496.489 248.009 495.689 249.384 492.871 250.576 491.914 250.794 491.914 250.794 490.938 251.016 491.611 250.224 492.285 249.433 492.959 248.643 493.334 248.202 493.709 247.762 494.096 247.308 494.885 246.404 495.714 245.536 496.562 244.688Z" fill="#FFFFFF"/><path d="M755.312 450.703C756.016 453.516 756.016 453.516 755.181 455.757 753.906 457.734 753.906 457.734 751.094 458.438 752.486 455.885 753.878 453.333 755.312 450.703Z" fill="#FFFFFF"/><path d="M464.219 485.156C465.186 486.694 465.186 486.694 465.625 487.969 464.929 487.969 464.233 487.969 463.516 487.969 463.199 487.516 462.883 487.062 462.557 486.595 461.518 484.996 461.518 484.996 459.662 484.728 458.72 484.679 458.72 484.679 457.759 484.629 456.808 484.569 456.808 484.569 455.839 484.508 455.356 484.49 454.873 484.472 454.375 484.453 454.375 484.221 454.375 483.989 454.375 483.75 458.397 482.987 460.689 482.719 464.219 485.156Z" fill="#FFFFFF"/><path d="M689.922 354.375C690.154 354.839 690.386 355.303 690.625 355.781 687.009 359.699 687.009 359.699 684.297 360 685.082 357.645 685.525 357.333 687.505 356.001 687.955 355.694 688.406 355.386 688.87 355.07 689.217 354.841 689.564 354.611 689.922 354.375Z" fill="#FFFFFF"/><path d="M740.547 471.797C740.779 471.797 741.011 471.797 741.25 471.797 741.412 473.796 741.502 474.934 740.371 476.631 739.141 477.422 739.141 477.422 737.657 477.12 737.219 476.987 736.78 476.855 736.328 476.719 737.014 475.896 737.703 475.077 738.394 474.258 738.777 473.801 739.16 473.344 739.555 472.874 740.046 472.341 740.046 472.341 740.547 471.797Z" fill="#FFFFFF"/><path d="M661.094 523.828C658.636 525.467 656.987 525.729 654.062 525.938 653.366 525.473 652.67 525.009 651.953 524.531 655.053 523.756 657.918 523.774 661.094 523.828Z" fill="#FFFFFF"/><path d="M557.031 421.172C557.031 421.636 557.031 422.1 557.031 422.578 555.091 423.847 554.296 423.993 551.934 423.721 551.296 423.576 550.657 423.431 550 423.281 552.52 421.601 554.03 421.172 557.031 421.172Z" fill="#FFFFFF"/><path d="M695.766 351.035C696.354 351.296 696.354 351.296 696.953 351.562 695.371 353.013 695.371 353.013 693.437 354.375 691.811 354.199 691.811 354.199 690.625 353.672 693.74 350.816 693.74 350.816 695.766 351.035Z" fill="#FFFFFF"/><path d="M549.297 423.281C549.297 423.745 549.297 424.209 549.297 424.688 548.392 424.961 547.483 425.223 546.572 425.479 546.067 425.625 545.561 425.772 545.04 425.923 544.588 425.98 544.137 426.036 543.672 426.094 543.208 425.63 542.744 425.166 542.266 424.688 546.924 423.281 546.924 423.281 549.297 423.281Z" fill="#FFFFFF"/><path d="M444.531 320.625C445.938 322.031 445.938 322.031 446.025 323.877 445.996 324.428 445.967 324.979 445.938 325.547 445.009 325.779 444.081 326.011 443.125 326.25 443.589 324.394 444.053 322.538 444.531 320.625Z" fill="#FFFFFF"/><path d="M542.266 426.094C542.266 426.558 542.266 427.022 542.266 427.5 540.64 427.983 540.64 427.983 538.75 428.203 537.476 427.192 537.476 427.192 536.641 426.094 538.787 425.404 540.119 425.404 542.266 426.094Z" fill="#FFFFFF"/><path d="M518.359 229.922C517.396 232.145 516.961 232.729 514.844 234.141 514.612 233.212 514.38 232.284 514.141 231.328 516.25 229.922 516.25 229.922 518.359 229.922Z" fill="#FFFFFF"/><path d="M654.062 509.766C655.798 510.575 656.909 511.206 658.281 512.578 658.049 513.274 657.817 513.97 657.578 514.688 656.377 513.546 655.205 512.372 654.062 511.172 654.062 510.708 654.062 510.244 654.062 509.766Z" fill="#FFFFFF"/><path d="M405.156 463.359C405.859 466.172 405.859 466.172 405.859 466.172Z" fill="#FFFFFF"/><path d="M636.484 574.453C638.594 575.156 638.594 575.156 638.594 575.156Z" fill="#FFFFFF"/></g></svg>