<?xml version="1.0" encoding="UTF-8"?>
<svg version="1.1" xmlns="http://www.w3.org/2000/svg" width="1024" height="1024">
<path d="M0 0 C1.09819061 -0.00945648 2.19638123 -0.01891296 3.32785034 -0.02865601 C4.50501617 -0.02258331 5.68218201 -0.01651062 6.89501953 -0.01025391 C8.72397263 -0.01455917 8.72397263 -0.01455917 10.58987427 -0.01895142 C13.16701726 -0.02099135 15.74417576 -0.01546647 18.32128906 -0.00292969 C22.25637673 0.01309622 26.19043293 -0.00276766 30.12548828 -0.02197266 C32.63200096 -0.01998967 35.13851299 -0.01614486 37.64501953 -0.01025391 C38.8181369 -0.0163266 39.99125427 -0.02239929 41.19992065 -0.02865601 C47.310256 0.02365956 52.13528999 0.13012118 57.40283203 3.38818359 C60.23284791 7.18466097 60.77666498 9.90595615 60.77032471 14.59555054 C60.77589386 15.84710938 60.78146301 17.09866821 60.78720093 18.38815308 C60.77817699 19.76886175 60.76885917 21.14956852 60.75927734 22.53027344 C60.76006885 23.99168012 60.76216807 25.45308659 60.76547241 26.91448975 C60.77061341 30.89252913 60.75703298 34.87031016 60.73994541 38.84830809 C60.72480881 43.05972335 60.7260801 47.27113655 60.72528076 51.48257446 C60.72158105 58.59975503 60.70661954 65.71683966 60.68408203 72.83398438 C60.65569507 81.81341784 60.64495535 90.79277303 60.64027882 99.77224636 C60.62197082 134.66343875 60.50356233 169.53919659 59.56801128 204.41993427 C56.9745013 285.00319669 56.9745013 285.00319669 78.40283203 361.38818359 C83.45442989 360.85276078 87.34680362 359.16389455 91.71533203 356.70068359 C92.46242432 356.28206055 93.2095166 355.8634375 93.97924805 355.43212891 C120.29443876 340.26614099 145.30161606 322.17263212 168.66601562 302.82080078 C171.16517608 300.75936227 173.69328574 298.73401653 176.21533203 296.70068359 C180.90208446 292.86542822 185.3820994 288.83310762 189.84033203 284.73583984 C193.9944462 280.93001269 198.23815747 277.227164 202.53173828 273.57958984 C206.25681436 270.38960757 209.35693815 267.24631585 212.40283203 263.38818359 C213.86385063 262.18690164 215.325707 260.98656603 216.79736328 259.79833984 C219.16927076 257.71498558 221.12707484 255.33774737 223.16845703 252.93505859 C225.49327559 250.28509059 227.90235095 247.73564208 230.33154297 245.18188477 C236.55993178 238.62036899 242.33368261 231.88480578 247.83251953 224.70458984 C250.21671492 221.59582118 252.73061888 218.61539254 255.27783203 215.63818359 C263.60923433 205.67700777 270.98041368 195.00353262 278.24658203 184.25146484 C278.87675987 183.3193367 278.87675987 183.3193367 279.51966858 182.36837769 C281.61450139 179.26646134 283.70218318 176.16003329 285.77954102 173.04638672 C295.86122269 157.99341055 295.86122269 157.99341055 300.77783203 154.88818359 C306.09902194 153.87462361 310.1218683 154.54631717 314.57080078 157.47021484 C315.59290338 158.36282556 316.59897803 159.27404188 317.59033203 160.20068359 C318.41053833 160.93013184 318.41053833 160.93013184 319.24731445 161.67431641 C320.98321079 163.22757811 322.69439244 164.80481067 324.40283203 166.38818359 C325.55097043 167.43929165 326.69940617 168.49007501 327.84814453 169.54052734 C330.06276052 171.57279695 332.26538006 173.6171266 334.46142578 175.66943359 C336.84743718 177.8913924 339.29057392 180.02952547 341.77783203 182.13818359 C342.99433753 183.21233206 344.20284175 184.29561603 345.40283203 185.38818359 C346.07572266 185.99791016 346.74861328 186.60763672 347.44189453 187.23583984 C350.74787785 190.54840879 352.89700143 193.2609907 353.34033203 198.01318359 C352.73616694 205.38623534 348.37034713 211.37727608 344.40283203 217.38818359 C343.67942627 218.49009033 343.67942627 218.49009033 342.94140625 219.61425781 C330.00067634 239.18306654 315.64213905 257.57062524 300.40283203 275.38818359 C299.49404297 276.45166016 299.49404297 276.45166016 298.56689453 277.53662109 C289.13651265 288.43906258 279.15403378 298.77184026 268.90600586 308.90136719 C265.55405273 312.21684462 262.2311429 315.56084645 258.91455078 318.91162109 C256.2968449 321.55179948 253.67330537 324.18588362 251.03955078 326.81005859 C250.43844482 327.40915039 249.83733887 328.00824219 249.21801758 328.62548828 C246.7499942 331.02214313 244.21665036 333.327126 241.58642578 335.54443359 C239.76323197 337.08387452 237.97257931 338.64835841 236.18798828 340.23193359 C227.6032023 347.81950862 218.71932197 354.88003754 209.56005859 361.75878906 C207.41024027 363.38258801 205.27551376 365.02428834 203.14501953 366.67333984 C174.42332504 388.89232104 143.7275647 407.84462937 111.40283203 424.38818359 C110.29982574 438.53636043 127.2251364 456.55667335 135.91162109 466.90063477 C138.36995439 469.76506798 140.87845878 472.58195487 143.40283203 475.38818359 C144.14533203 476.22325439 144.14533203 476.22325439 144.90283203 477.07519531 C164.48472569 500.36646886 164.48472569 500.36646886 190.05908203 513.82568359 C195.41711562 513.74831127 198.17494107 510.94613804 201.90283203 507.38818359 C202.55574219 506.79239502 203.20865234 506.19660645 203.88134766 505.58276367 C205.74298422 503.87216468 207.57684095 502.13668602 209.40283203 500.38818359 C210.22783203 499.60830078 211.05283203 498.82841797 211.90283203 498.02490234 C232.1845808 478.25811985 247.28882506 454.03918508 259.06298828 428.46240234 C259.84236747 426.77073396 260.62228487 425.07931339 261.40283203 423.38818359 C261.76231934 422.60523926 262.12180664 421.82229492 262.4921875 421.015625 C264.16156137 417.50385649 265.10383036 415.58751804 268.40283203 413.38818359 C271.16636658 413.12075806 271.16636658 413.12075806 274.55493164 413.09765625 C275.82312241 413.08489655 277.09131317 413.07213684 278.39793396 413.05899048 C279.78367968 413.05593317 281.16942745 413.05370522 282.55517578 413.05224609 C283.97620275 413.04581907 285.39722838 413.03909078 286.81825256 413.03207397 C289.79659086 413.0200997 292.77481315 413.01639333 295.75317383 413.01757812 C299.56777327 413.01778142 303.38162858 412.99046987 307.1960516 412.95603371 C310.13089915 412.93378631 313.06556694 412.92973989 316.00049019 412.93079758 C317.40670908 412.92843871 318.81293271 412.91959895 320.21906853 412.90413284 C322.18639397 412.88451892 324.15393772 412.8928216 326.12133789 412.90234375 C327.24035995 412.89949371 328.35938202 412.89664368 329.51231384 412.89370728 C333.07215907 413.5026843 334.25404557 414.53040423 336.40283203 417.38818359 C337.10223482 422.94978074 335.71378449 427.52375892 333.90283203 432.70068359 C333.50233643 433.86929932 333.50233643 433.86929932 333.09375 435.06152344 C328.07638834 449.33421242 321.41220035 462.9996532 314.40283203 476.38818359 C314.07234863 477.02401367 313.74186523 477.65984375 313.40136719 478.31494141 C305.14785221 494.0401014 294.86778073 508.83465897 283.40283203 522.38818359 C282.57267578 523.40138672 281.74251953 524.41458984 280.88720703 525.45849609 C269.38393155 539.34662154 256.66829072 552.33747616 242.40283203 563.38818359 C240.60926191 564.88590709 238.81764552 566.38597285 237.02783203 567.88818359 C189.61748607 606.61112241 127.64173337 626.58937769 66.84033203 626.63818359 C66.07715668 626.63885834 65.31398132 626.63953308 64.52767944 626.64022827 C-12.7865032 626.53265057 -83.10027085 594.63555413 -137.47216797 540.63818359 C-144.08325051 533.94161291 -150.07695782 526.85062084 -156.03466797 519.57568359 C-156.82333252 518.61625854 -156.82333252 518.61625854 -157.62792969 517.63745117 C-158.41514404 516.66908325 -158.41514404 516.66908325 -159.21826172 515.68115234 C-159.7416362 515.0499498 -160.26501068 514.41874725 -160.804245 513.76841736 C-162.59716797 511.38818359 -162.59716797 511.38818359 -164.13414001 508.60321045 C-166.77607409 504.10230008 -168.74744066 500.93622339 -173.89750671 499.41035461 C-177.98771815 499.08435374 -181.94780435 499.09815928 -186.04248047 499.23583984 C-187.54122966 499.24408947 -189.04001785 499.24688026 -190.53878784 499.24449158 C-194.4670895 499.25013377 -198.39166782 499.31779895 -202.31896973 499.40246582 C-208.60901125 499.52866922 -214.89991757 499.56471734 -221.19103622 499.59155083 C-223.37991464 499.61051439 -225.56662041 499.65894017 -227.75491333 499.71168518 C-229.10352718 499.72835766 -230.4521498 499.7443395 -231.80078125 499.75952148 C-233.55662033 499.79596519 -233.55662033 499.79596519 -235.34793091 499.83314514 C-239.34302031 499.28604404 -241.46229843 497.87529376 -244.59716797 495.38818359 C-248.51832688 490.02579544 -248.04827689 484.19931183 -248.03076172 477.82177734 C-248.03600357 476.71012711 -248.04124542 475.59847687 -248.04664612 474.45314026 C-248.05305498 472.10898675 -248.05174408 469.76480104 -248.04321289 467.4206543 C-248.03468864 463.83438019 -248.06350539 460.24969171 -248.09521484 456.66357422 C-248.09682663 454.38297574 -248.09624976 452.10237444 -248.09326172 449.82177734 C-248.11011269 448.21537636 -248.11011269 448.21537636 -248.12730408 446.57652283 C-248.05797207 439.17608477 -248.05797207 439.17608477 -245.75366211 435.23608398 C-241.99083873 432.01171965 -238.55259002 432.23451201 -233.76904297 432.14208984 C-232.39794326 432.1091337 -231.02684967 432.07592237 -229.65576172 432.04248047 C-227.50557907 431.99524791 -225.35541798 431.95083498 -223.20507812 431.91137695 C-221.12196795 431.87130791 -219.03936556 431.81983714 -216.95654297 431.76708984 C-215.71356445 431.74203369 -214.47058594 431.71697754 -213.18994141 431.69116211 C-209.35972501 431.36816003 -206.24279547 430.55898864 -202.59716797 429.38818359 C-203.13145194 424.55236847 -203.88286042 419.89255191 -204.95556641 415.15014648 C-219.4671241 349.85499487 -207.81343802 276.02032589 -171.8828125 219.37939453 C-165.33238288 209.23406526 -158.42304985 199.59905832 -150.59716797 190.38818359 C-149.44087891 188.95539063 -149.44087891 188.95539063 -148.26123047 187.49365234 C-136.5623282 173.0845619 -123.30025273 159.5811644 -108.28759766 148.62988281 C-106.53997176 147.34617032 -104.82184741 146.029098 -103.10498047 144.70458984 C-78.40327187 125.84305176 -49.50660018 111.38472405 -19.23779297 104.07958984 C-16.69084355 103.65017259 -16.69084355 103.65017259 -15.59716797 102.38818359 C-15.49318243 99.52880474 -15.45355697 96.69278847 -15.45532227 93.83276367 C-15.45184784 92.93517334 -15.44837341 92.03758301 -15.4447937 91.11279297 C-15.43742151 89.15607643 -15.43208396 87.19935144 -15.42850304 85.24262428 C-15.42135732 82.14497159 -15.40570399 79.04747913 -15.38716125 75.94987488 C-15.33461013 67.13986444 -15.28672666 58.3299391 -15.27124023 49.51977539 C-15.26115596 44.13680992 -15.2318154 38.75424312 -15.18992043 33.37143517 C-15.17760726 31.31939396 -15.17248974 29.26729643 -15.17471886 27.2152195 C-15.17707297 24.33990648 -15.15489524 21.4657349 -15.12719727 18.59057617 C-15.13379868 17.74410019 -15.14040009 16.89762421 -15.14720154 16.02549744 C-15.0630582 10.69843568 -14.22722339 7.5485278 -10.59716797 3.38818359 C-7.03418084 0.64082057 -4.45631874 0.0110493 0 0 Z M-24.65966797 174.70068359 C-25.70900513 175.1002124 -25.70900513 175.1002124 -26.77954102 175.5078125 C-39.67640797 180.62663532 -51.71427349 187.81113513 -62.59716797 196.38818359 C-63.41056641 197.01080078 -64.22396484 197.63341797 -65.06201172 198.27490234 C-71.91540552 203.61253764 -78.28280172 209.43288671 -84.59716797 215.38818359 C-85.33064453 216.07912109 -86.06412109 216.77005859 -86.81982422 217.48193359 C-100.94750147 231.18830834 -112.34988556 248.08614161 -121.59716797 265.38818359 C-122.10505859 266.29955078 -122.61294922 267.21091797 -123.13623047 268.14990234 C-147.17290379 313.20259753 -149.26673959 368.86259371 -135.78076172 417.32177734 C-134.22954288 422.5636923 -134.22954288 422.5636923 -130.59716797 426.38818359 C-91.67053776 432.32342529 -43.35076683 412.8907067 -6.65966797 400.51318359 C-5.62646423 400.16992538 -5.62646423 400.16992538 -4.5723877 399.81973267 C-2.62928595 399.17067531 -0.6927132 398.50515349 1.24267578 397.83349609 C2.88804321 397.26912842 2.88804321 397.26912842 4.56665039 396.69335938 C7.54597077 395.32231291 9.25846402 393.84083489 11.40283203 391.38818359 C11.16685303 390.72737793 10.93087402 390.06657227 10.68774414 389.38574219 C-14.07447541 319.36512136 -13.87237383 246.67001599 -14.59716797 173.38818359 C-18.54488514 172.07227787 -20.94233024 173.27580128 -24.65966797 174.70068359 Z M30.42626953 460.56396484 C29.03796291 461.06252926 27.64961462 461.56097767 26.26123047 462.05932617 C25.16772278 462.46050156 25.16772278 462.46050156 24.05212402 462.86978149 C-12.66660627 476.28480041 -50.89838505 485.89122716 -89.59716797 491.38818359 C-90.00487482 495.35360893 -90.00487482 495.35360893 -87.78857422 497.72802734 C-62.07949383 523.13150202 -29.24080154 541.4425103 5.40283203 551.38818359 C6.60794434 551.74299805 6.60794434 551.74299805 7.83740234 552.10498047 C24.40259085 556.93733041 41.14972498 559.76222053 58.40283203 560.38818359 C59.39541016 560.42943359 60.38798828 560.47068359 61.41064453 560.51318359 C76.1825534 560.82173522 91.16186662 559.2494537 105.65283203 556.45068359 C106.49209229 556.2930957 107.33135254 556.13550781 108.19604492 555.97314453 C109.35801392 555.73192871 109.35801392 555.73192871 110.54345703 555.48583984 C111.21924805 555.34670166 111.89503906 555.20756348 112.59130859 555.06420898 C114.76763737 554.25204532 115.88274439 553.11670839 117.40283203 551.38818359 C116.07820405 548.41038451 114.69335638 546.48223202 112.27001953 544.31396484 C111.63668701 543.73767334 111.00335449 543.16138184 110.35083008 542.56762695 C109.66674072 541.95153564 108.98265137 541.33544434 108.27783203 540.70068359 C95.64986471 529.07687135 83.97470459 516.74904765 73.64990234 503.02929688 C72.41984279 501.41056933 71.16322291 499.81698833 69.89501953 498.22802734 C65.18554118 492.29515244 60.87401609 486.19901565 56.77783203 479.82568359 C56.08524292 478.74903442 56.08524292 478.74903442 55.37866211 477.65063477 C53.26364494 474.34566138 51.17773488 471.02718842 49.14111328 467.67333984 C48.12597656 466.0471875 48.12597656 466.0471875 47.09033203 464.38818359 C46.22988281 462.96505859 46.22988281 462.96505859 45.35205078 461.51318359 C41.00538519 456.77453413 35.84762493 458.56618488 30.42626953 460.56396484 Z " fill="#013154" transform="translate(428.59716796875,189.61181640625)"/>
<path d="M0 0 C1.375 2.1875 1.375 2.1875 2 4 C1.01 4 0.02 4 -1 4 C-1.4211055 3.35125916 -1.842211 2.70251831 -2.27607727 2.03411865 C-3.88430868 -0.30268507 -3.88430868 -0.30268507 -6.94230652 -0.51898193 C-8.14365738 -0.52786438 -9.34500824 -0.53674683 -10.58276367 -0.54589844 C-11.24644455 -0.55623611 -11.91012543 -0.56657379 -12.59391785 -0.57722473 C-14.78551441 -0.60670022 -16.97618938 -0.60815277 -19.16796875 -0.609375 C-20.68827582 -0.62435361 -22.2085666 -0.64108009 -23.72883606 -0.65948486 C-27.72863504 -0.70320724 -31.72821452 -0.72316802 -35.72821045 -0.73822021 C-39.81047573 -0.75777391 -43.89250334 -0.79974576 -47.97460938 -0.83984375 C-55.98301081 -0.91519863 -63.99131905 -0.96545782 -72 -1 C-72 -1.33 -72 -1.66 -72 -2 C-63.49860443 -2.20053489 -54.99708057 -2.38421333 -46.49487877 -2.54658794 C-42.54664512 -2.62251643 -38.5987057 -2.70417062 -34.65087891 -2.79907227 C-30.83853058 -2.89050376 -27.02615029 -2.96668277 -23.21327591 -3.03244972 C-21.76117273 -3.06014717 -20.30916222 -3.09327009 -18.85731125 -3.13199425 C-16.81810627 -3.18544264 -14.77941957 -3.21930333 -12.73974609 -3.2487793 C-11.58058685 -3.27320602 -10.42142761 -3.29763275 -9.22714233 -3.32279968 C-5.52918742 -2.95290628 -3.16150095 -1.92341508 0 0 Z " fill="#0C375B" transform="translate(262,690)"/>
<path d="M0 0 C5.22654901 1.47642627 8.16826439 4.82231936 11.8125 8.625 C12.7087207 9.54152344 12.7087207 9.54152344 13.62304688 10.4765625 C15.08895106 11.97764839 16.54542993 13.48792862 18 15 C17.34 15.66 16.68 16.32 16 17 C13.32932797 14.3581833 10.66414667 11.7108958 8 9.0625 C7.236875 8.30775391 6.47375 7.55300781 5.6875 6.77539062 C4.965625 6.05673828 4.24375 5.33808594 3.5 4.59765625 C2.8296875 3.93258057 2.159375 3.26750488 1.46875 2.58227539 C0 1 0 1 0 0 Z " fill="#354B69" transform="translate(287,725)"/>
<path d="M0 0 C5.29012124 4.40843437 10.18808428 9.07559794 15 14 C14.67 14.99 14.34 15.98 14 17 C9.05 12.05 4.1 7.1 -1 2 C-0.67 1.34 -0.34 0.68 0 0 Z " fill="#364B69" transform="translate(523,715)"/>
<path d="M0 0 C-0.33 0.66 -0.66 1.32 -1 2 C-3.32156597 2.40729228 -5.6568787 2.74438677 -8 3 C-6.33248852 6.94139078 -3.77289351 9.7892812 -1 13 C-4.43413515 13 -4.81954722 12.65525082 -7.1875 10.375 C-9.60075486 7.87236533 -9.97253139 7.24721746 -10.375 3.625 C-10.25125 2.75875 -10.1275 1.8925 -10 1 C-6.78548731 -0.60725635 -3.56387464 -0.05748185 0 0 Z " fill="#2E4565" transform="translate(347,679)"/>
<path d="M0 0 C1.32 0.33 2.64 0.66 4 1 C2.76110404 2.48847937 1.5084328 3.96550105 0.25 5.4375 C-0.79414063 6.67306641 -0.79414063 6.67306641 -1.859375 7.93359375 C-4.01343015 10.01296451 -5.08310781 10.63867326 -8 11 C-5.71461395 6.91036181 -3.04293074 3.53637896 0 0 Z " fill="#1D3C5C" transform="translate(287,369)"/>
<path d="M0 0 C0.66 0.33 1.32 0.66 2 1 C0.38405168 3.04119788 -1.2856382 5.04072937 -3 7 C-3.66 7 -4.32 7 -5 7 C-5 7.66 -5 8.32 -5 9 C-6.32 8.67 -7.64 8.34 -9 8 C-6.03 5.36 -3.06 2.72 0 0 Z " fill="#2E4665" transform="translate(638,457)"/>
<path d="M0 0 C0.33 0.66 0.66 1.32 1 2 C1.99 2.33 2.98 2.66 4 3 C5.60546875 4.84765625 5.60546875 4.84765625 7.1875 7.0625 C7.71730469 7.79597656 8.24710938 8.52945313 8.79296875 9.28515625 C9.19128906 9.85105469 9.58960938 10.41695312 10 11 C7 11 7 11 4.95703125 9.03125 C4.24933594 8.1959375 3.54164063 7.360625 2.8125 6.5 C2.09707031 5.6646875 1.38164062 4.829375 0.64453125 3.96875 C0.10183594 3.3190625 -0.44085938 2.669375 -1 2 C-0.67 1.34 -0.34 0.68 0 0 Z " fill="#2D4361" transform="translate(507,697)"/>
<path d="M0 0 C0.66 0.33 1.32 0.66 2 1 C-0.10515339 4.72450216 -1.24267224 6.6795921 -5.25 8.375 C-6.61125 8.684375 -6.61125 8.684375 -8 9 C-7.04270084 7.87411986 -6.08412105 6.7493285 -5.125 5.625 C-4.59132813 4.99851562 -4.05765625 4.37203125 -3.5078125 3.7265625 C-2.38567993 2.44163349 -1.20628025 1.20628025 0 0 Z " fill="#294462" transform="translate(308,348)"/>
<path d="M0 0 C1 4 1 4 -0.1875 7.1875 C-2 10 -2 10 -6 11 C-4.02 7.37 -2.04 3.74 0 0 Z " fill="#284262" transform="translate(676,641)"/>
<path d="M0 0 C1.375 2.1875 1.375 2.1875 2 4 C1.01 4 0.02 4 -1 4 C-1.44988281 3.35546875 -1.89976562 2.7109375 -2.36328125 2.046875 C-3.84167235 -0.22827159 -3.84167235 -0.22827159 -6.48046875 -0.609375 C-7.82044922 -0.67898438 -7.82044922 -0.67898438 -9.1875 -0.75 C-10.53908203 -0.83507812 -10.53908203 -0.83507812 -11.91796875 -0.921875 C-12.60503906 -0.94765625 -13.29210937 -0.9734375 -14 -1 C-14 -1.33 -14 -1.66 -14 -2 C-8.28008217 -3.084812 -5.02069157 -3.46666799 0 0 Z " fill="#1E3C5E" transform="translate(262,690)"/>
<path d="M0 0 C0.33 0.66 0.66 1.32 1 2 C-4.14285714 7.57142857 -4.14285714 7.57142857 -8 8 C-6.88333826 4.65001479 -6.25305075 4.20659778 -3.4375 2.3125 C-2.79683594 1.87550781 -2.15617188 1.43851562 -1.49609375 0.98828125 C-1.00238281 0.66214844 -0.50867188 0.33601563 0 0 Z " fill="#274160" transform="translate(583,504)"/>
<path d="M0 0 C0.33 0 0.66 0 1 0 C1.23053497 2.84326464 1.35903101 4.46145349 -0.25 6.875 C-2 8 -2 8 -4.109375 7.5703125 C-4.73328125 7.38210938 -5.3571875 7.19390625 -6 7 C-5.02433888 5.83040013 -4.044375 4.66438823 -3.0625 3.5 C-2.51722656 2.8503125 -1.97195313 2.200625 -1.41015625 1.53125 C-0.71212891 0.77328125 -0.71212891 0.77328125 0 0 Z " fill="#244060" transform="translate(655,671)"/>
<path d="M0 0 C-3.49592778 2.33061852 -5.84130536 2.70295038 -10 3 C-10.99 2.34 -11.98 1.68 -13 1 C-8.59085217 -0.10228696 -4.51617599 -0.07654536 0 0 Z " fill="#2F4563" transform="translate(542,745)"/>
<path d="M0 0 C0 0.66 0 1.32 0 2 C-2.75924185 3.80411967 -3.88972103 4.0127245 -7.25 3.625 C-8.1575 3.41875 -9.065 3.2125 -10 3 C-6.41600853 0.61067235 -4.26804999 0 0 0 Z " fill="#2D4563" transform="translate(394,599)"/>
<path d="M0 0 C0.8353125 0.37125 0.8353125 0.37125 1.6875 0.75 C-0.5625 2.8125 -0.5625 2.8125 -3.3125 4.75 C-5.625 4.5 -5.625 4.5 -7.3125 3.75 C-2.88173077 -0.31153846 -2.88173077 -0.31153846 0 0 Z " fill="#213C5E" transform="translate(591.3125,499.25)"/>
<path d="M0 0 C0 0.66 0 1.32 0 2 C-1.28745036 2.38922918 -2.58019597 2.76098036 -3.875 3.125 C-4.59429687 3.33382812 -5.31359375 3.54265625 -6.0546875 3.7578125 C-6.69664062 3.83773437 -7.33859375 3.91765625 -8 4 C-8.66 3.34 -9.32 2.68 -10 2 C-3.375 0 -3.375 0 0 0 Z " fill="#324B6A" transform="translate(383,602)"/>
<path d="M0 0 C2 2 2 2 2.125 4.625 C2.08375 5.40875 2.0425 6.1925 2 7 C0.68 7.33 -0.64 7.66 -2 8 C-1.34 5.36 -0.68 2.72 0 0 Z " fill="#20405F" transform="translate(234,456)"/>
<path d="M0 0 C0 0.66 0 1.32 0 2 C-2.3125 2.6875 -2.3125 2.6875 -5 3 C-6.8125 1.5625 -6.8125 1.5625 -8 0 C-4.94736336 -0.98120464 -3.05263664 -0.98120464 0 0 Z " fill="#1D3F60" transform="translate(373,606)"/>
<path d="M0 0 C-1.36983503 3.16115776 -1.9890638 3.9927092 -5 6 C-5.33 4.68 -5.66 3.36 -6 2 C-3 0 -3 0 0 0 Z " fill="#133858" transform="translate(339,327)"/>
<path d="M0 0 C2.46800047 1.15173355 4.04783565 2.04783565 6 4 C5.67 4.99 5.34 5.98 5 7 C3.29115995 5.37660195 1.62553283 3.70680947 0 2 C0 1.34 0 0.68 0 0 Z " fill="#41546F" transform="translate(532,725)"/>
<path d="M0 0 C1 4 1 4 1 4 Z " fill="#E6E8E5" transform="translate(178,659)"/>
<path d="M0 0 C3 1 3 1 3 1 Z " fill="#E5E4E4" transform="translate(507,817)"/>
<path d="" fill="#E6E9E5" transform="translate(0,0)"/>
<path d="" fill="#E8EBE6" transform="translate(0,0)"/>
<path d="" fill="#E6EBEC" transform="translate(0,0)"/>
<path d="" fill="#E7E8E4" transform="translate(0,0)"/>
<path d="" fill="#E7E9E6" transform="translate(0,0)"/>
<path d="" fill="#E7E6E5" transform="translate(0,0)"/>
<path d="" fill="#E6F0EC" transform="translate(0,0)"/>
<path d="" fill="#DEECE9" transform="translate(0,0)"/>
<path d="" fill="#EBEAE6" transform="translate(0,0)"/>
<path d="" fill="#EEE9E5" transform="translate(0,0)"/>
<path d="" fill="#EAEBE6" transform="translate(0,0)"/>
<path d="" fill="#E6EBE7" transform="translate(0,0)"/>
<path d="" fill="#ECE7E3" transform="translate(0,0)"/>
<path d="" fill="#E9E6E4" transform="translate(0,0)"/>
<path d="" fill="#EAEAE6" transform="translate(0,0)"/>
<path d="" fill="#E7E6E6" transform="translate(0,0)"/>
<path d="" fill="none" transform="translate(0,0)"/>
</svg>
